<svg width="251" height="251" viewBox="0 0 251 251" fill="none" xmlns="http://www.w3.org/2000/svg">
<rect width="251" height="251" fill="#004B36"></rect>
<path d="M88.3293 50.9998C89.9862 50.9998 91.3293 52.3429 91.3293 53.9998V143H152.329V53.9998C152.329 52.3429 153.672 50.9998 155.329 50.9998H200.329C201.986 50.9998 203.329 52.343 203.329 53.9998V192C203.329 193.656 201.986 195 200.329 195H156.329C154.673 195 153.329 193.657 153.329 192V155H152.534C148.246 179.066 127.004 197 96.3293 197C65.07 197 41.3294 173.062 41.3293 139.5V53.9998C41.3293 52.3429 42.6725 50.9998 44.3293 50.9998H88.3293Z" fill="#CD99FF" stroke="#FBF07A" stroke-width="6" stroke-linejoin="round"></path>
</svg>